<svg width="24" height="25" viewBox="0 0 24 25" fill="none" xmlns="http://www.w3.org/2000/svg">
<path fill-rule="evenodd" clip-rule="evenodd" d="M11.793 6.29304C11.7001 6.38583 11.6263 6.49603 11.576 6.61735C11.5257 6.73866 11.4998 6.86871 11.4998 7.00004C11.4998 7.13138 11.5257 7.26142 11.576 7.38274C11.6263 7.50405 11.7001 7.61425 11.793 7.70704L15.586 11.5H6C5.73478 11.5 5.48043 11.6054 5.29289 11.7929C5.10536 11.9805 5 12.2348 5 12.5C5 12.7653 5.10536 13.0196 5.29289 13.2071C5.48043 13.3947 5.73478 13.5 6 13.5H15.586L11.793 17.293C11.7001 17.3858 11.6263 17.496 11.576 17.6173C11.5257 17.7387 11.4998 17.8687 11.4998 18C11.4998 18.1314 11.5257 18.2614 11.576 18.3827C11.6263 18.504 11.7001 18.6143 11.793 18.707C12.183 19.097 12.817 19.097 13.208 18.707L18.707 13.207C18.8881 13.0266 18.993 12.7836 19 12.528V12.471C18.9928 12.2158 18.888 11.9731 18.707 11.793L13.208 6.29304C13.1151 6.20007 13.0048 6.12631 12.8834 6.07598C12.762 6.02566 12.6319 5.99976 12.5005 5.99976C12.3691 5.99976 12.239 6.02566 12.1176 6.07598C11.9962 6.12631 11.8859 6.20007 11.793 6.29304Z" fill="white"/>
</svg>
