<svg width="24" height="25" viewBox="0 0 24 25" fill="none" xmlns="http://www.w3.org/2000/svg">
<path fill-rule="evenodd" clip-rule="evenodd" d="M12.207 6.29304C12.2999 6.38583 12.3737 6.49603 12.424 6.61735C12.4743 6.73866 12.5002 6.86871 12.5002 7.00004C12.5002 7.13138 12.4743 7.26142 12.424 7.38274C12.3737 7.50405 12.2999 7.61425 12.207 7.70704L8.414 11.5H18C18.2652 11.5 18.5196 11.6054 18.7071 11.7929C18.8946 11.9805 19 12.2348 19 12.5C19 12.7653 18.8946 13.0196 18.7071 13.2071C18.5196 13.3947 18.2652 13.5 18 13.5H8.414L12.207 17.293C12.2999 17.3858 12.3737 17.496 12.424 17.6173C12.4743 17.7387 12.5002 17.8687 12.5002 18C12.5002 18.1314 12.4743 18.2614 12.424 18.3827C12.3737 18.504 12.2999 18.6143 12.207 18.707C11.817 19.097 11.183 19.097 10.792 18.707L5.293 13.207C5.1119 13.0266 5.00701 12.7836 5 12.528V12.471C5.00716 12.2158 5.11205 11.9731 5.293 11.793L10.792 6.29304C10.8849 6.20007 10.9952 6.12631 11.1166 6.07598C11.238 6.02566 11.3681 5.99976 11.4995 5.99976C11.6309 5.99976 11.761 6.02566 11.8824 6.07598C12.0038 6.12631 12.1141 6.20007 12.207 6.29304Z" fill="#29292A"/>
</svg>
