<svg width="24" height="24" viewBox="0 0 24 24" fill="none" xmlns="http://www.w3.org/2000/svg">
<g clip-path="url(#clip0_2629_1263)">
<path d="M12.0001 12L11.3107 0.75537C11.3034 0.661633 11.315 0.567384 11.3449 0.478222C11.3747 0.389061 11.4221 0.306806 11.4844 0.236346C11.5466 0.165885 11.6224 0.108656 11.7072 0.0680587C11.792 0.0274615 11.8841 0.00432447 11.9781 2.23367e-05C12.0756 -0.00450408 12.1729 0.0113664 12.264 0.0466191C12.355 0.0818717 12.4377 0.135731 12.5067 0.204752C12.5757 0.273774 12.6296 0.356439 12.6648 0.447462C12.7001 0.538485 12.7159 0.635863 12.7114 0.733369L12.0001 12Z" fill="#0E0E10"/>
<path d="M12.0001 12L12.6894 23.2447C12.6974 23.429 12.6328 23.6091 12.5093 23.7463C12.3859 23.8834 12.2136 23.9666 12.0294 23.978C11.9319 23.9825 11.8345 23.9667 11.7435 23.9314C11.6525 23.8962 11.5698 23.8423 11.5008 23.7733C11.4318 23.7042 11.3779 23.6216 11.3426 23.5306C11.3074 23.4395 11.2915 23.3422 11.296 23.2447L12.0001 12Z" fill="#0E0E10"/>
<path d="M23.9977 11.9779C23.9863 11.794 23.903 11.6219 23.7658 11.4988C23.6286 11.3758 23.4484 11.3117 23.2643 11.3204L12.0197 12.0097L23.2643 12.7235C23.3629 12.7282 23.4614 12.712 23.5533 12.676C23.6452 12.64 23.7285 12.5851 23.7977 12.5147C23.8669 12.4443 23.9205 12.3601 23.9549 12.2676C23.9894 12.1752 24.004 12.0764 23.9977 11.9779Z" fill="#0E0E10"/>
<path d="M5.78706e-05 12.0293C0.010795 12.2137 0.0938204 12.3864 0.231115 12.51C0.368411 12.6336 0.548897 12.698 0.733405 12.6893L11.9781 12L0.733405 11.2862C0.635032 11.2815 0.536784 11.2977 0.445053 11.3335C0.353323 11.3693 0.270165 11.4241 0.20099 11.4942C0.131815 11.5643 0.0781728 11.6482 0.043554 11.7404C0.00893515 11.8325 -0.00588497 11.931 5.78706e-05 12.0293Z" fill="#0E0E10"/>
<path d="M12 11.9999L7.14281 7.70252C7.07678 7.64392 7.02298 7.57284 6.98451 7.49337C6.94605 7.41391 6.92367 7.32762 6.91868 7.23947C6.91368 7.15133 6.92616 7.06306 6.95539 6.97976C6.98463 6.89645 7.03005 6.81975 7.08903 6.75406C7.15528 6.67942 7.23732 6.62047 7.32919 6.58149C7.42105 6.5425 7.52045 6.52446 7.62016 6.52868C7.71987 6.53289 7.81739 6.55925 7.90564 6.60584C7.9939 6.65244 8.07067 6.7181 8.13038 6.79806L12 11.9999Z" fill="#0E0E10"/>
<path d="M12 12.0001L16.2974 7.14293C16.356 7.0769 16.4271 7.0231 16.5066 6.98464C16.586 6.94617 16.6723 6.9238 16.7605 6.9188C16.8486 6.9138 16.9369 6.92628 17.0202 6.95551C17.1035 6.98475 17.1802 7.03017 17.2459 7.08915C17.3205 7.1554 17.3795 7.23744 17.4184 7.32931C17.4574 7.42118 17.4755 7.52057 17.4713 7.62028C17.467 7.71999 17.4407 7.81751 17.3941 7.90576C17.3475 7.99402 17.2818 8.07079 17.2019 8.13051L12 12.0001Z" fill="#0E0E10"/>
<path d="M16.9159 17.2459C17.035 17.1135 17.0967 16.9394 17.0876 16.7615C17.0784 16.5837 16.9991 16.4168 16.867 16.2974L12 12L15.8745 17.2019C15.9342 17.2818 16.011 17.3475 16.0993 17.3941C16.1875 17.4407 16.285 17.467 16.3847 17.4713C16.4844 17.4755 16.5838 17.4574 16.6757 17.4184C16.7676 17.3795 16.8496 17.3205 16.9159 17.2459Z" fill="#0E0E10"/>
<path d="M12.0001 12L7.70264 16.867C7.58461 17.0005 7.4184 17.0816 7.24055 17.0926C7.06271 17.1036 6.88777 17.0436 6.75418 16.9256C6.67954 16.8594 6.62059 16.7774 6.58161 16.6855C6.54263 16.5936 6.52458 16.4942 6.5288 16.3945C6.53301 16.2948 6.55937 16.1973 6.60597 16.109C6.65256 16.0208 6.71822 15.944 6.79818 15.8843L12.0001 12Z" fill="#0E0E10"/>
</g>
<defs>
<clipPath id="clip0_2629_1263">
<rect width="24" height="24" fill="white"/>
</clipPath>
</defs>
</svg>
