<svg width="25" height="24" viewBox="0 0 25 24" fill="none" xmlns="http://www.w3.org/2000/svg">
<path d="M12.5001 11.9998L11.8107 0.755125C11.8034 0.661389 11.815 0.56714 11.8449 0.477978C11.8747 0.388817 11.9221 0.306562 11.9844 0.236101C12.0466 0.165641 12.1224 0.108412 12.2072 0.0678145C12.292 0.0272173 12.3841 0.00408033 12.4781 -0.000221804C12.5756 -0.00474822 12.6729 0.0111223 12.764 0.0463749C12.855 0.0816276 12.9377 0.135487 13.0067 0.204508C13.0757 0.27353 13.1296 0.356195 13.1648 0.447218C13.2001 0.538241 13.2159 0.635619 13.2114 0.733125L12.5001 11.9998Z" fill="#00C853"/>
<path d="M12.5001 12L13.1894 23.2447C13.1974 23.429 13.1328 23.6091 13.0093 23.7463C12.8859 23.8834 12.7136 23.9666 12.5294 23.978C12.4319 23.9825 12.3345 23.9667 12.2435 23.9314C12.1525 23.8962 12.0698 23.8423 12.0008 23.7733C11.9318 23.7042 11.8779 23.6216 11.8426 23.5306C11.8074 23.4395 11.7915 23.3422 11.796 23.2447L12.5001 12Z" fill="#00C853"/>
<path d="M24.4977 11.9777C24.4863 11.7937 24.403 11.6216 24.2658 11.4986C24.1286 11.3755 23.9484 11.3114 23.7643 11.3201L12.5197 12.0095L23.7643 12.7233C23.8629 12.7279 23.9614 12.7117 24.0533 12.6758C24.1452 12.6398 24.2285 12.5848 24.2977 12.5144C24.3669 12.4441 24.4205 12.3599 24.4549 12.2674C24.4894 12.1749 24.504 12.0762 24.4977 11.9777Z" fill="#00C853"/>
<path d="M0.500058 12.0291C0.510795 12.2135 0.59382 12.3862 0.731115 12.5098C0.868411 12.6333 1.0489 12.6978 1.2334 12.6891L12.4781 11.9997L1.2334 11.2859C1.13503 11.2813 1.03678 11.2974 0.945053 11.3333C0.853323 11.3691 0.770165 11.4238 0.70099 11.4939C0.631815 11.564 0.578173 11.6479 0.543554 11.7401C0.508935 11.8323 0.494115 11.9308 0.500058 12.0291Z" fill="#00C853"/>
<path d="M12.5 12.0002L7.64281 7.70276C7.57678 7.64416 7.52298 7.57308 7.48451 7.49362C7.44605 7.41415 7.42367 7.32786 7.41868 7.23972C7.41368 7.15157 7.42616 7.06331 7.45539 6.98C7.48463 6.8967 7.53005 6.81999 7.58903 6.7543C7.65528 6.67966 7.73732 6.62072 7.82919 6.58173C7.92105 6.54275 8.02045 6.52471 8.12016 6.52892C8.21987 6.53313 8.31739 6.55949 8.40564 6.60609C8.4939 6.65268 8.57067 6.71834 8.63038 6.7983L12.5 12.0002Z" fill="#00C853"/>
<path d="M12.5 11.9994L16.7974 7.1422C16.856 7.07617 16.9271 7.02237 17.0066 6.9839C17.086 6.94544 17.1723 6.92306 17.2605 6.91807C17.3486 6.91307 17.4369 6.92555 17.5202 6.95478C17.6035 6.98402 17.6802 7.02943 17.7459 7.08842C17.8205 7.15467 17.8795 7.23671 17.9184 7.32858C17.9574 7.42044 17.9755 7.51984 17.9713 7.61955C17.967 7.71926 17.9407 7.81678 17.8941 7.90503C17.8475 7.99329 17.7818 8.07006 17.7019 8.12977L12.5 11.9994Z" fill="#00C853"/>
<path d="M17.4159 17.2459C17.535 17.1135 17.5967 16.9394 17.5876 16.7615C17.5784 16.5837 17.4991 16.4168 17.367 16.2974L12.5 12L16.3745 17.2019C16.4342 17.2818 16.511 17.3475 16.5993 17.3941C16.6875 17.4407 16.785 17.467 16.8847 17.4713C16.9844 17.4755 17.0838 17.4574 17.1757 17.4184C17.2676 17.3795 17.3496 17.3205 17.4159 17.2459Z" fill="#00C853"/>
<path d="M12.5001 12L8.20264 16.867C8.08461 17.0005 7.9184 17.0816 7.74055 17.0926C7.56271 17.1036 7.38777 17.0436 7.25418 16.9256C7.17954 16.8594 7.12059 16.7774 7.08161 16.6855C7.04263 16.5936 7.02458 16.4942 7.0288 16.3945C7.03301 16.2948 7.05937 16.1973 7.10597 16.109C7.15256 16.0208 7.21822 15.944 7.29818 15.8843L12.5001 12Z" fill="#00C853"/>
</svg>
