<svg width="21" height="20" viewBox="0 0 21 20" fill="none" xmlns="http://www.w3.org/2000/svg">
<path fill-rule="evenodd" clip-rule="evenodd" d="M9.77744 7.29258C9.60665 6.41346 9.34784 4.76727 9.34536 3.52126C9.33984 0.73885 9.84715 0.00124688 10.4747 1.57793e-06C11.1023 -0.00124373 11.6631 0.73424 11.6686 3.51665C11.6711 4.76266 11.3723 6.40995 11.205 7.28975C11.0286 8.21726 10.6347 9.59549 10.5241 9.97572C10.8629 9.87645 12.2804 9.46703 13.2272 9.28412C14.1045 9.11466 15.747 8.85846 16.9899 8.85846C19.7653 8.85846 20.5 9.36852 20.5 9.99771C20.5 10.6269 19.7653 11.1876 16.9899 11.1876C15.747 11.1876 14.1045 10.8848 13.2272 10.7153C12.2791 10.5322 10.859 10.1188 10.5227 10.0195C10.6314 10.393 11.0279 11.7787 11.205 12.7101C11.3723 13.5899 11.6711 15.2371 11.6686 16.4832C11.6631 19.2656 11.1023 20.001 10.4747 19.9998C9.84715 19.9986 9.33984 19.2609 9.34534 16.4785C9.34781 15.2325 9.60662 13.5863 9.7774 12.7072C9.9576 11.7796 10.3547 10.4013 10.4655 10.0229C10.1089 10.1281 8.71013 10.5342 7.77277 10.7153C6.89553 10.8848 5.25299 11.1876 4.01012 11.1876C1.23473 11.1876 0.5 10.6269 0.5 9.99771C0.5 9.36852 1.23473 8.85846 4.01012 8.85846C5.25299 8.85846 6.89553 9.11466 7.77277 9.28412C8.70901 9.46499 10.1056 9.86735 10.4642 9.97228C10.3516 9.58754 9.95693 8.21652 9.77744 7.29258Z" fill="#00C853"/>
</svg>
